<svg width="62" height="62" viewBox="0 0 62 62" fill="none" xmlns="http://www.w3.org/2000/svg">
<g opacity="0.45">
<path d="M32.0172 11.5051C27.7063 11.4979 22.3055 12.8602 16.9773 15.6332C11.6577 18.4063 7.44121 22.0391 4.96606 25.5871C2.48969 29.123 1.82004 32.4168 3.03824 34.766C4.25766 37.1031 7.3407 38.4473 11.6625 38.4473C15.9844 38.4594 21.3852 37.091 26.7012 34.3301C32.0293 31.557 36.2434 27.9121 38.7137 24.3762C41.1961 20.8402 41.85 17.5465 40.6391 15.1973C39.416 12.8602 36.3402 11.5051 32.0172 11.5051ZM43.1457 20.0168C42.7219 21.8695 41.8016 23.7707 40.5059 25.6234C37.7691 29.5348 33.3008 33.3492 27.7063 36.2555C22.1117 39.1738 16.4324 40.6391 11.6613 40.6391C9.40899 40.6391 7.32133 40.3 5.56184 39.5855L6.84422 42.0559C8.06484 44.4051 11.1394 45.7492 15.4637 45.7492C19.7867 45.7492 25.1875 44.393 30.5035 41.6199C35.8316 38.859 40.0457 35.2141 42.516 31.666C44.9863 28.1301 45.6645 24.8363 44.4414 22.4992L43.1457 20.0168ZM46.6332 22.0512C47.9895 25.2844 46.8996 29.2199 44.3082 32.9133C42.0195 36.1949 38.5199 39.3797 34.1848 42.0438C35.5289 42.1891 36.9336 42.2617 38.3625 42.2617C44.3566 42.2617 49.7816 40.9781 53.6082 38.9801C57.4469 36.982 59.5539 34.3664 59.5539 31.7266C59.5539 29.0867 57.4469 26.4711 53.6082 24.473C51.6586 23.4559 49.2852 22.6203 46.6332 22.0512ZM59.5539 37.1637C58.3187 38.6047 56.6234 39.8762 54.6254 40.9176C50.3871 43.1215 44.6715 44.4414 38.3625 44.4414C35.7953 44.4414 33.325 44.2234 31.0121 43.8117C28.2027 45.2285 25.3813 46.282 22.6688 46.9723C22.8141 47.057 22.9594 47.1297 23.1168 47.2145C26.9434 49.2125 32.3684 50.4961 38.3625 50.4961C44.3566 50.4961 49.7816 49.2125 53.6082 47.2145C57.4469 45.2164 59.5539 42.6008 59.5539 39.9609V37.1637Z" fill="#23CEE6"/>
</g>
</svg>
